# MagicaVoxel @ Ephtracy

# group
o 

# material
mtllib grass_tile_001.mtl
usemtl palette

# normals
vn -1 0 0
vn 1 0 0
vn 0 0 1
vn 0 0 -1
vn 0 -1 0
vn 0 1 0

# texcoords
vt 0.912109 0.5
vt 0.939453 0.5
vt 0.970703 0.5

# verts
v -0.8 0 0.8
v -0.8 0 0.7
v -0.8 0 -0.5
v -0.8 0 -0.7
v -0.8 0.1 0.7
v -0.8 0.1 0.6
v -0.8 0.2 0.6
v -0.8 0.2 0.2
v -0.8 0.2 -0.1
v -0.8 0.2 -0.2
v -0.8 0.2 -0.3
v -0.8 0.2 -0.5
v -0.8 0.2 -0.6
v -0.8 0.2 -0.7
v -0.8 0.3 0.8
v -0.8 0.3 0.3
v -0.8 0.3 0.2
v -0.8 0.3 -0.1
v -0.8 0.3 -0.2
v -0.8 0.3 -0.3
v -0.8 0.3 -0.4
v -0.8 0.3 -0.6
v -0.8 0.4 0.3
v -0.8 0.4 -0.4
v -0.8 0.5 0.8
v -0.8 0.5 -0.7
v -0.7 0.5 -0.3
v -0.7 0.5 -0.5
v -0.7 0.6 -0.3
v -0.7 0.6 -0.5
v -0.6 0.5 0.3
v -0.6 0.5 0.2
v -0.6 0.6 0.3
v -0.6 0.6 0.2
v -0.5 0.5 0.7
v -0.5 0.5 0.6
v -0.5 0.6 0.7
v -0.5 0.6 0.6
v -0.3 0.5 0.7
v -0.3 0.5 0.5
v -0.3 0.6 0.7
v -0.3 0.6 0.5
v -0.2 0.5 0.8
v -0.2 0.5 0.7
v -0.2 0.6 0.8
v -0.2 0.6 0.7
v -0.1 0.4 -0.2
v -0.1 0.4 -0.3
v -0.1 0.5 -0.2
v -0.1 0.5 -0.3
v -0.1 0.5 -0.4
v -0.1 0.5 -0.5
v -0.1 0.6 -0.4
v -0.1 0.6 -0.5
v 0.1 0.5 -0.1
v 0.1 0.5 -0.2
v 0.1 0.6 -0.1
v 0.1 0.6 -0.2
v 0.2 0.4 0.5
v 0.2 0.4 0.4
v 0.2 0.5 0.5
v 0.2 0.5 0.4
v 0.4 0.3 -0.2
v 0.4 0.3 -0.3
v 0.4 0.4 0.1
v 0.4 0.4 0
v 0.4 0.4 -0.1
v 0.4 0.4 -0.2
v 0.4 0.4 -0.3
v 0.4 0.5 0.1
v 0.4 0.5 -0.1
v 0.5 0.3 -0.3
v 0.5 0.3 -0.5
v 0.5 0.4 -0.1
v 0.5 0.4 -0.2
v 0.5 0.4 -0.3
v 0.5 0.4 -0.5
v 0.5 0.4 -0.6
v 0.5 0.5 0.1
v 0.5 0.5 0
v 0.5 0.5 -0.1
v 0.5 0.5 -0.2
v 0.5 0.5 -0.5
v 0.5 0.5 -0.6
v 0.5 0.6 0.1
v 0.5 0.6 0
v 0.6 0.4 -0.2
v 0.6 0.4 -0.5
v 0.6 0.5 0.3
v 0.6 0.5 0.2
v 0.6 0.5 -0.2
v 0.6 0.5 -0.5
v 0.6 0.6 0.3
v 0.6 0.6 0.2
v -0.6 0.5 -0.4
v -0.6 0.5 -0.5
v -0.6 0.6 -0.4
v -0.6 0.6 -0.5
v -0.5 0.5 0.3
v -0.5 0.5 0.2
v -0.5 0.5 -0.3
v -0.5 0.5 -0.4
v -0.5 0.6 0.3
v -0.5 0.6 0.2
v -0.5 0.6 -0.3
v -0.5 0.6 -0.4
v -0.4 0.5 0.7
v -0.4 0.5 0.6
v -0.4 0.6 0.7
v -0.4 0.6 0.6
v -0.2 0.4 -0.2
v -0.2 0.4 -0.3
v -0.2 0.5 -0.2
v -0.2 0.5 -0.3
v -0.1 0.5 0.8
v -0.1 0.5 0.7
v -0.1 0.5 0.6
v -0.1 0.5 0.5
v -0.1 0.6 0.8
v -0.1 0.6 0.7
v -0.1 0.6 0.6
v -0.1 0.6 0.5
v 0 0.5 0.7
v 0 0.5 0.6
v 0 0.5 -0.4
v 0 0.5 -0.5
v 0 0.6 0.7
v 0 0.6 0.6
v 0 0.6 -0.4
v 0 0.6 -0.5
v 0.1 0.4 0.5
v 0.1 0.4 0.4
v 0.1 0.5 0.5
v 0.1 0.5 0.4
v 0.2 0.4 0.1
v 0.2 0.4 -0.1
v 0.2 0.4 -0.6
v 0.2 0.5 0.1
v 0.2 0.5 -0.1
v 0.2 0.5 -0.2
v 0.2 0.5 -0.6
v 0.2 0.6 -0.1
v 0.2 0.6 -0.2
v 0.3 0.3 -0.2
v 0.3 0.3 -0.5
v 0.3 0.4 -0.2
v 0.3 0.4 -0.5
v 0.6 0.5 0.1
v 0.6 0.5 0
v 0.6 0.6 0.1
v 0.6 0.6 0
v 0.7 0 0.8
v 0.7 0 0.7
v 0.7 0 0.5
v 0.7 0 0.4
v 0.7 0 -0.2
v 0.7 0 -0.3
v 0.7 0 -0.7
v 0.7 0.1 0.6
v 0.7 0.1 0.5
v 0.7 0.1 -0.4
v 0.7 0.1 -0.5
v 0.7 0.2 0.7
v 0.7 0.2 0.6
v 0.7 0.2 0.4
v 0.7 0.2 0.3
v 0.7 0.2 -0.1
v 0.7 0.2 -0.2
v 0.7 0.2 -0.3
v 0.7 0.2 -0.4
v 0.7 0.3 0.8
v 0.7 0.3 0.4
v 0.7 0.3 0.3
v 0.7 0.3 -0.1
v 0.7 0.3 -0.2
v 0.7 0.3 -0.4
v 0.7 0.3 -0.5
v 0.7 0.3 -0.7
v 0.7 0.4 0.4
v 0.7 0.4 -0.2
v 0.7 0.4 -0.4
v 0.7 0.4 -0.7
v 0.7 0.5 0.8
v 0.7 0.5 0.3
v 0.7 0.5 0.2
v 0.7 0.5 -0.7
v 0.7 0.6 0.3
v 0.7 0.6 0.2
v -0.8 0 0.8
v -0.8 0.3 0.8
v -0.8 0.5 0.8
v -0.7 0 0.8
v -0.7 0.2 0.8
v -0.7 0.3 0.8
v -0.7 0.4 0.8
v -0.6 0.2 0.8
v -0.6 0.3 0.8
v -0.3 0.2 0.8
v -0.3 0.3 0.8
v -0.2 0.3 0.8
v -0.2 0.4 0.8
v -0.2 0.5 0.8
v -0.2 0.6 0.8
v -0.1 0.5 0.8
v -0.1 0.6 0.8
v 0.2 0.3 0.8
v 0.2 0.4 0.8
v 0.3 0.2 0.8
v 0.3 0.3 0.8
v 0.5 0.2 0.8
v 0.5 0.3 0.8
v 0.6 0 0.8
v 0.6 0.2 0.8
v 0.6 0.3 0.8
v 0.6 0.4 0.8
v 0.7 0 0.8
v 0.7 0.3 0.8
v 0.7 0.5 0.8
v -0.5 0.5 0.7
v -0.5 0.6 0.7
v -0.4 0.5 0.7
v -0.4 0.6 0.7
v -0.3 0.5 0.7
v -0.3 0.6 0.7
v -0.2 0.5 0.7
v -0.2 0.6 0.7
v -0.1 0.5 0.7
v -0.1 0.6 0.7
v 0 0.5 0.7
v 0 0.6 0.7
v 0.1 0.4 0.4
v 0.1 0.5 0.4
v 0.2 0.4 0.4
v 0.2 0.5 0.4
v -0.6 0.5 0.3
v -0.6 0.6 0.3
v -0.5 0.5 0.3
v -0.5 0.6 0.3
v 0.6 0.5 0.3
v 0.6 0.6 0.3
v 0.7 0.5 0.3
v 0.7 0.6 0.3
v 0.5 0.5 0.1
v 0.5 0.6 0.1
v 0.6 0.5 0.1
v 0.6 0.6 0.1
v 0.1 0.5 -0.1
v 0.1 0.6 -0.1
v 0.2 0.5 -0.1
v 0.2 0.6 -0.1
v -0.7 0.5 -0.3
v -0.7 0.6 -0.3
v -0.5 0.5 -0.3
v -0.5 0.6 -0.3
v -0.2 0.4 -0.3
v -0.2 0.5 -0.3
v -0.1 0.4 -0.3
v -0.1 0.5 -0.3
v -0.1 0.5 -0.4
v -0.1 0.6 -0.4
v 0 0.5 -0.4
v 0 0.6 -0.4
v 0.3 0.3 -0.5
v 0.3 0.4 -0.5
v 0.5 0.3 -0.5
v 0.5 0.4 -0.5
v 0.5 0.5 -0.5
v 0.6 0.4 -0.5
v 0.6 0.5 -0.5
v 0.2 0.4 -0.6
v 0.2 0.5 -0.6
v 0.5 0.4 -0.6
v 0.5 0.5 -0.6
v -0.5 0.5 0.6
v -0.5 0.6 0.6
v -0.4 0.5 0.6
v -0.4 0.6 0.6
v -0.1 0.5 0.6
v -0.1 0.6 0.6
v 0 0.5 0.6
v 0 0.6 0.6
v -0.3 0.5 0.5
v -0.3 0.6 0.5
v -0.1 0.5 0.5
v -0.1 0.6 0.5
v 0.1 0.4 0.5
v 0.1 0.5 0.5
v 0.2 0.4 0.5
v 0.2 0.5 0.5
v -0.6 0.5 0.2
v -0.6 0.6 0.2
v -0.5 0.5 0.2
v -0.5 0.6 0.2
v 0.6 0.5 0.2
v 0.6 0.6 0.2
v 0.7 0.5 0.2
v 0.7 0.6 0.2
v 0.2 0.4 0.1
v 0.2 0.5 0.1
v 0.4 0.4 0.1
v 0.4 0.5 0.1
v 0.5 0.5 0
v 0.5 0.6 0
v 0.6 0.5 0
v 0.6 0.6 0
v 0.4 0.4 -0.1
v 0.4 0.5 -0.1
v 0.5 0.4 -0.1
v 0.5 0.5 -0.1
v -0.2 0.4 -0.2
v -0.2 0.5 -0.2
v -0.1 0.4 -0.2
v -0.1 0.5 -0.2
v 0.1 0.5 -0.2
v 0.1 0.6 -0.2
v 0.2 0.5 -0.2
v 0.2 0.6 -0.2
v 0.3 0.3 -0.2
v 0.3 0.4 -0.2
v 0.4 0.3 -0.2
v 0.4 0.4 -0.2
v 0.5 0.4 -0.2
v 0.5 0.5 -0.2
v 0.6 0.4 -0.2
v 0.6 0.5 -0.2
v 0.4 0.3 -0.3
v 0.4 0.4 -0.3
v 0.5 0.3 -0.3
v 0.5 0.4 -0.3
v -0.6 0.5 -0.4
v -0.6 0.6 -0.4
v -0.5 0.5 -0.4
v -0.5 0.6 -0.4
v -0.7 0.5 -0.5
v -0.7 0.6 -0.5
v -0.6 0.5 -0.5
v -0.6 0.6 -0.5
v -0.1 0.5 -0.5
v -0.1 0.6 -0.5
v 0 0.5 -0.5
v 0 0.6 -0.5
v -0.8 0 -0.7
v -0.8 0.2 -0.7
v -0.8 0.5 -0.7
v -0.7 0 -0.7
v -0.7 0.1 -0.7
v -0.7 0.2 -0.7
v -0.7 0.3 -0.7
v -0.6 0.1 -0.7
v -0.6 0.2 -0.7
v -0.5 0.3 -0.7
v -0.5 0.4 -0.7
v -0.4 0.2 -0.7
v -0.4 0.3 -0.7
v -0.3 0.2 -0.7
v -0.3 0.3 -0.7
v -0.2 0 -0.7
v -0.2 0.2 -0.7
v -0.1 0 -0.7
v -0.1 0.3 -0.7
v 0.2 0.1 -0.7
v 0.2 0.3 -0.7
v 0.3 0.1 -0.7
v 0.3 0.2 -0.7
v 0.4 0.2 -0.7
v 0.4 0.3 -0.7
v 0.7 0 -0.7
v 0.7 0.3 -0.7
v 0.7 0.4 -0.7
v 0.7 0.5 -0.7
v -0.8 0 0.8
v -0.7 0 0.8
v 0.6 0 0.8
v 0.7 0 0.8
v -0.8 0 0.7
v -0.7 0 0.7
v 0.6 0 0.7
v 0.7 0 0.7
v 0.6 0 0.5
v 0.7 0 0.5
v 0.6 0 0.4
v 0.7 0 0.4
v 0.6 0 -0.2
v 0.7 0 -0.2
v 0.6 0 -0.3
v 0.7 0 -0.3
v -0.8 0 -0.5
v -0.7 0 -0.5
v -0.2 0 -0.6
v -0.1 0 -0.6
v -0.8 0 -0.7
v -0.7 0 -0.7
v -0.2 0 -0.7
v -0.1 0 -0.7
v 0.7 0 -0.7
v 0.3 0.3 -0.2
v 0.4 0.3 -0.2
v 0.4 0.3 -0.3
v 0.5 0.3 -0.3
v 0.3 0.3 -0.5
v 0.5 0.3 -0.5
v 0.1 0.4 0.5
v 0.2 0.4 0.5
v 0.1 0.4 0.4
v 0.2 0.4 0.4
v 0.2 0.4 0.1
v 0.4 0.4 0.1
v 0.3 0.4 0
v 0.4 0.4 0
v 0.2 0.4 -0.1
v 0.3 0.4 -0.1
v 0.4 0.4 -0.1
v 0.5 0.4 -0.1
v -0.2 0.4 -0.2
v -0.1 0.4 -0.2
v 0.3 0.4 -0.2
v 0.4 0.4 -0.2
v 0.5 0.4 -0.2
v 0.6 0.4 -0.2
v -0.2 0.4 -0.3
v -0.1 0.4 -0.3
v 0.4 0.4 -0.3
v 0.5 0.4 -0.3
v 0.3 0.4 -0.5
v 0.5 0.4 -0.5
v 0.6 0.4 -0.5
v 0.2 0.4 -0.6
v 0.5 0.4 -0.6
v -0.8 0.5 0.8
v -0.2 0.5 0.8
v -0.1 0.5 0.8
v 0.7 0.5 0.8
v -0.5 0.5 0.7
v -0.4 0.5 0.7
v -0.3 0.5 0.7
v -0.2 0.5 0.7
v -0.1 0.5 0.7
v 0 0.5 0.7
v -0.5 0.5 0.6
v -0.4 0.5 0.6
v -0.1 0.5 0.6
v 0 0.5 0.6
v -0.3 0.5 0.5
v -0.1 0.5 0.5
v 0.1 0.5 0.5
v 0.2 0.5 0.5
v 0.1 0.5 0.4
v 0.2 0.5 0.4
v -0.6 0.5 0.3
v -0.5 0.5 0.3
v 0.6 0.5 0.3
v 0.7 0.5 0.3
v -0.6 0.5 0.2
v -0.5 0.5 0.2
v 0.6 0.5 0.2
v 0.7 0.5 0.2
v 0.2 0.5 0.1
v 0.4 0.5 0.1
v 0.5 0.5 0.1
v 0.6 0.5 0.1
v 0.5 0.5 0
v 0.6 0.5 0
v 0.1 0.5 -0.1
v 0.2 0.5 -0.1
v 0.4 0.5 -0.1
v 0.5 0.5 -0.1
v -0.2 0.5 -0.2
v -0.1 0.5 -0.2
v 0.1 0.5 -0.2
v 0.2 0.5 -0.2
v 0.5 0.5 -0.2
v 0.6 0.5 -0.2
v -0.7 0.5 -0.3
v -0.5 0.5 -0.3
v -0.2 0.5 -0.3
v -0.1 0.5 -0.3
v -0.6 0.5 -0.4
v -0.5 0.5 -0.4
v -0.1 0.5 -0.4
v 0 0.5 -0.4
v -0.7 0.5 -0.5
v -0.6 0.5 -0.5
v -0.1 0.5 -0.5
v 0 0.5 -0.5
v 0.5 0.5 -0.5
v 0.6 0.5 -0.5
v 0.2 0.5 -0.6
v 0.5 0.5 -0.6
v -0.8 0.5 -0.7
v 0.7 0.5 -0.7
v -0.2 0.6 0.8
v -0.1 0.6 0.8
v -0.5 0.6 0.7
v -0.4 0.6 0.7
v -0.3 0.6 0.7
v -0.2 0.6 0.7
v -0.1 0.6 0.7
v 0 0.6 0.7
v -0.5 0.6 0.6
v -0.4 0.6 0.6
v -0.1 0.6 0.6
v 0 0.6 0.6
v -0.3 0.6 0.5
v -0.1 0.6 0.5
v -0.6 0.6 0.3
v -0.5 0.6 0.3
v 0.6 0.6 0.3
v 0.7 0.6 0.3
v -0.6 0.6 0.2
v -0.5 0.6 0.2
v 0.6 0.6 0.2
v 0.7 0.6 0.2
v 0.5 0.6 0.1
v 0.6 0.6 0.1
v 0.5 0.6 0
v 0.6 0.6 0
v 0.1 0.6 -0.1
v 0.2 0.6 -0.1
v 0.1 0.6 -0.2
v 0.2 0.6 -0.2
v -0.7 0.6 -0.3
v -0.5 0.6 -0.3
v -0.6 0.6 -0.4
v -0.5 0.6 -0.4
v -0.1 0.6 -0.4
v 0 0.6 -0.4
v -0.7 0.6 -0.5
v -0.6 0.6 -0.5
v -0.1 0.6 -0.5
v 0 0.6 -0.5

# faces
f 5/1/1 2/1/1 1/1/1
f 5/2/1 3/2/1 2/2/1
f 6/2/1 3/2/1 5/2/1
f 7/1/1 6/1/1 5/1/1
f 7/2/1 3/2/1 6/2/1
f 8/2/1 3/2/1 7/2/1
f 9/2/1 3/2/1 8/2/1
f 10/2/1 3/2/1 9/2/1
f 11/2/1 3/2/1 10/2/1
f 12/1/1 4/1/1 3/1/1
f 12/2/1 3/2/1 11/2/1
f 13/1/1 4/1/1 12/1/1
f 14/1/1 4/1/1 13/1/1
f 15/1/1 5/1/1 1/1/1
f 15/1/1 7/1/1 5/1/1
f 15/1/1 8/1/1 7/1/1
f 16/1/1 8/1/1 15/1/1
f 17/2/1 9/2/1 8/2/1
f 17/1/1 8/1/1 16/1/1
f 18/1/1 10/1/1 9/1/1
f 18/2/1 9/2/1 17/2/1
f 19/2/1 11/2/1 10/2/1
f 19/1/1 10/1/1 18/1/1
f 20/1/1 13/1/1 12/1/1
f 20/2/1 11/2/1 19/2/1
f 20/1/1 12/1/1 11/1/1
f 21/1/1 13/1/1 20/1/1
f 22/3/1 14/3/1 13/3/1
f 22/1/1 13/1/1 21/1/1
f 23/1/1 18/1/1 17/1/1
f 23/1/1 21/1/1 20/1/1
f 23/1/1 19/1/1 18/1/1
f 23/1/1 20/1/1 19/1/1
f 23/3/1 16/3/1 15/3/1
f 23/1/1 17/1/1 16/1/1
f 24/3/1 22/3/1 21/3/1
f 24/1/1 21/1/1 23/1/1
f 25/3/1 23/3/1 15/3/1
f 25/3/1 24/3/1 23/3/1
f 26/3/1 14/3/1 22/3/1
f 26/3/1 24/3/1 25/3/1
f 26/3/1 22/3/1 24/3/1
f 29/3/1 28/3/1 27/3/1
f 30/3/1 28/3/1 29/3/1
f 33/3/1 32/3/1 31/3/1
f 34/3/1 32/3/1 33/3/1
f 37/3/1 36/3/1 35/3/1
f 38/3/1 36/3/1 37/3/1
f 41/3/1 40/3/1 39/3/1
f 42/3/1 40/3/1 41/3/1
f 45/3/1 44/3/1 43/3/1
f 46/3/1 44/3/1 45/3/1
f 49/3/1 48/3/1 47/3/1
f 50/3/1 48/3/1 49/3/1
f 53/3/1 52/3/1 51/3/1
f 54/3/1 52/3/1 53/3/1
f 57/3/1 56/3/1 55/3/1
f 58/3/1 56/3/1 57/3/1
f 61/3/1 60/3/1 59/3/1
f 62/3/1 60/3/1 61/3/1
f 68/1/1 64/1/1 63/1/1
f 69/1/1 64/1/1 68/1/1
f 70/3/1 67/3/1 66/3/1
f 70/3/1 66/3/1 65/3/1
f 71/3/1 67/3/1 70/3/1
f 76/1/1 73/1/1 72/1/1
f 77/1/1 73/1/1 76/1/1
f 81/3/1 75/3/1 74/3/1
f 82/3/1 75/3/1 81/3/1
f 83/3/1 78/3/1 77/3/1
f 84/3/1 78/3/1 83/3/1
f 85/3/1 80/3/1 79/3/1
f 86/3/1 80/3/1 85/3/1
f 91/3/1 88/3/1 87/3/1
f 92/3/1 88/3/1 91/3/1
f 93/3/1 90/3/1 89/3/1
f 94/3/1 90/3/1 93/3/1
f 95/3/2 96/3/2 97/3/2
f 97/3/2 96/3/2 98/3/2
f 99/3/2 100/3/2 103/3/2
f 103/3/2 100/3/2 104/3/2
f 101/3/2 102/3/2 105/3/2
f 105/3/2 102/3/2 106/3/2
f 107/3/2 108/3/2 109/3/2
f 109/3/2 108/3/2 110/3/2
f 111/3/2 112/3/2 113/3/2
f 113/3/2 112/3/2 114/3/2
f 115/3/2 116/3/2 119/3/2
f 119/3/2 116/3/2 120/3/2
f 117/3/2 118/3/2 121/3/2
f 121/3/2 118/3/2 122/3/2
f 123/3/2 124/3/2 127/3/2
f 127/3/2 124/3/2 128/3/2
f 125/3/2 126/3/2 129/3/2
f 129/3/2 126/3/2 130/3/2
f 131/3/2 132/3/2 133/3/2
f 133/3/2 132/3/2 134/3/2
f 135/3/2 136/3/2 138/3/2
f 136/3/2 137/3/2 138/3/2
f 138/3/2 137/3/2 139/3/2
f 139/3/2 137/3/2 140/3/2
f 140/3/2 137/3/2 141/3/2
f 139/3/2 140/3/2 142/3/2
f 142/3/2 140/3/2 143/3/2
f 144/1/2 145/1/2 146/1/2
f 146/1/2 145/1/2 147/1/2
f 148/3/2 149/3/2 150/3/2
f 150/3/2 149/3/2 151/3/2
f 153/2/2 154/2/2 159/2/2
f 154/1/2 155/1/2 160/1/2
f 159/2/2 154/2/2 160/2/2
f 157/2/2 158/2/2 161/2/2
f 161/2/2 158/2/2 162/2/2
f 152/1/2 153/1/2 163/1/2
f 153/2/2 159/2/2 163/2/2
f 159/1/2 160/1/2 164/1/2
f 163/2/2 159/2/2 164/2/2
f 160/1/2 155/1/2 165/1/2
f 164/1/2 160/1/2 165/1/2
f 155/2/2 156/2/2 165/2/2
f 165/2/2 156/2/2 166/2/2
f 166/2/2 156/2/2 167/2/2
f 156/1/2 157/1/2 168/1/2
f 167/2/2 156/2/2 168/2/2
f 157/2/2 161/2/2 169/2/2
f 168/1/2 157/1/2 169/1/2
f 161/1/2 162/1/2 170/1/2
f 169/2/2 161/2/2 170/2/2
f 163/1/2 164/1/2 171/1/2
f 152/1/2 163/1/2 171/1/2
f 164/1/2 165/1/2 171/1/2
f 165/1/2 166/1/2 171/1/2
f 171/1/2 166/1/2 172/1/2
f 166/2/2 167/2/2 173/2/2
f 172/1/2 166/1/2 173/1/2
f 168/1/2 169/1/2 174/1/2
f 173/2/2 167/2/2 174/2/2
f 167/1/2 168/1/2 174/1/2
f 169/1/2 170/1/2 174/1/2
f 174/1/2 170/1/2 175/1/2
f 170/1/2 162/1/2 176/1/2
f 175/1/2 170/1/2 176/1/2
f 162/2/2 158/2/2 177/2/2
f 176/1/2 162/1/2 177/1/2
f 177/2/2 158/2/2 178/2/2
f 174/1/2 175/1/2 179/1/2
f 172/1/2 173/1/2 179/1/2
f 171/3/2 172/3/2 179/3/2
f 173/1/2 174/1/2 179/1/2
f 175/3/2 176/3/2 180/3/2
f 179/1/2 175/1/2 180/1/2
f 177/1/2 178/1/2 181/1/2
f 180/3/2 176/3/2 181/3/2
f 176/1/2 177/1/2 181/1/2
f 181/1/2 178/1/2 182/1/2
f 171/3/2 179/3/2 183/3/2
f 179/3/2 180/3/2 183/3/2
f 181/3/2 182/3/2 183/3/2
f 180/3/2 181/3/2 183/3/2
f 183/3/2 182/3/2 184/3/2
f 184/3/2 182/3/2 185/3/2
f 185/3/2 182/3/2 186/3/2
f 184/3/2 185/3/2 187/3/2
f 187/3/2 185/3/2 188/3/2
f 192/1/3 190/1/3 189/1/3
f 193/1/3 190/1/3 192/1/3
f 194/3/3 191/3/3 190/3/3
f 194/1/3 190/1/3 193/1/3
f 195/3/3 191/3/3 194/3/3
f 196/2/3 193/2/3 192/2/3
f 196/1/3 194/1/3 193/1/3
f 196/1/3 195/1/3 194/1/3
f 197/1/3 195/1/3 196/1/3
f 198/2/3 196/2/3 192/2/3
f 198/2/3 197/2/3 196/2/3
f 199/1/3 195/1/3 197/1/3
f 199/2/3 197/2/3 198/2/3
f 200/1/3 199/1/3 198/1/3
f 200/1/3 195/1/3 199/1/3
f 201/3/3 191/3/3 195/3/3
f 201/1/3 195/1/3 200/1/3
f 202/3/3 191/3/3 201/3/3
f 204/3/3 201/3/3 200/3/3
f 204/3/3 203/3/3 202/3/3
f 204/3/3 202/3/3 201/3/3
f 205/3/3 203/3/3 204/3/3
f 206/1/3 200/1/3 198/1/3
f 206/3/3 204/3/3 200/3/3
f 207/3/3 204/3/3 206/3/3
f 208/2/3 198/2/3 192/2/3
f 208/1/3 206/1/3 198/1/3
f 208/1/3 207/1/3 206/1/3
f 209/1/3 207/1/3 208/1/3
f 210/2/3 208/2/3 192/2/3
f 210/2/3 209/2/3 208/2/3
f 211/1/3 207/1/3 209/1/3
f 211/2/3 209/2/3 210/2/3
f 212/2/3 210/2/3 192/2/3
f 213/1/3 211/1/3 210/1/3
f 213/2/3 210/2/3 212/2/3
f 214/1/3 207/1/3 211/1/3
f 214/1/3 211/1/3 213/1/3
f 215/3/3 204/3/3 207/3/3
f 215/1/3 207/1/3 214/1/3
f 216/1/3 214/1/3 213/1/3
f 216/1/3 213/1/3 212/1/3
f 217/3/3 215/3/3 214/3/3
f 217/1/3 214/1/3 216/1/3
f 218/3/3 204/3/3 215/3/3
f 218/3/3 215/3/3 217/3/3
f 221/3/3 220/3/3 219/3/3
f 222/3/3 220/3/3 221/3/3
f 225/3/3 224/3/3 223/3/3
f 226/3/3 224/3/3 225/3/3
f 229/3/3 228/3/3 227/3/3
f 230/3/3 228/3/3 229/3/3
f 233/3/3 232/3/3 231/3/3
f 234/3/3 232/3/3 233/3/3
f 237/3/3 236/3/3 235/3/3
f 238/3/3 236/3/3 237/3/3
f 241/3/3 240/3/3 239/3/3
f 242/3/3 240/3/3 241/3/3
f 245/3/3 244/3/3 243/3/3
f 246/3/3 244/3/3 245/3/3
f 249/3/3 248/3/3 247/3/3
f 250/3/3 248/3/3 249/3/3
f 253/3/3 252/3/3 251/3/3
f 254/3/3 252/3/3 253/3/3
f 257/3/3 256/3/3 255/3/3
f 258/3/3 256/3/3 257/3/3
f 261/3/3 260/3/3 259/3/3
f 262/3/3 260/3/3 261/3/3
f 265/1/3 264/1/3 263/1/3
f 266/1/3 264/1/3 265/1/3
f 268/3/3 267/3/3 266/3/3
f 269/3/3 267/3/3 268/3/3
f 272/3/3 271/3/3 270/3/3
f 273/3/3 271/3/3 272/3/3
f 274/3/4 275/3/4 276/3/4
f 276/3/4 275/3/4 277/3/4
f 278/3/4 279/3/4 280/3/4
f 280/3/4 279/3/4 281/3/4
f 282/3/4 283/3/4 284/3/4
f 284/3/4 283/3/4 285/3/4
f 286/3/4 287/3/4 288/3/4
f 288/3/4 287/3/4 289/3/4
f 290/3/4 291/3/4 292/3/4
f 292/3/4 291/3/4 293/3/4
f 294/3/4 295/3/4 296/3/4
f 296/3/4 295/3/4 297/3/4
f 298/3/4 299/3/4 300/3/4
f 300/3/4 299/3/4 301/3/4
f 302/3/4 303/3/4 304/3/4
f 304/3/4 303/3/4 305/3/4
f 306/3/4 307/3/4 308/3/4
f 308/3/4 307/3/4 309/3/4
f 310/3/4 311/3/4 312/3/4
f 312/3/4 311/3/4 313/3/4
f 314/3/4 315/3/4 316/3/4
f 316/3/4 315/3/4 317/3/4
f 318/1/4 319/1/4 320/1/4
f 320/1/4 319/1/4 321/1/4
f 322/3/4 323/3/4 324/3/4
f 324/3/4 323/3/4 325/3/4
f 326/1/4 327/1/4 328/1/4
f 328/1/4 327/1/4 329/1/4
f 330/3/4 331/3/4 332/3/4
f 332/3/4 331/3/4 333/3/4
f 334/3/4 335/3/4 336/3/4
f 336/3/4 335/3/4 337/3/4
f 338/3/4 339/3/4 340/3/4
f 340/3/4 339/3/4 341/3/4
f 342/1/4 343/1/4 345/1/4
f 345/1/4 343/1/4 346/1/4
f 343/3/4 344/3/4 347/3/4
f 346/1/4 343/1/4 347/1/4
f 347/3/4 344/3/4 348/3/4
f 345/2/4 346/2/4 349/2/4
f 346/1/4 347/1/4 349/1/4
f 347/1/4 348/1/4 349/1/4
f 349/1/4 348/1/4 350/1/4
f 348/3/4 344/3/4 351/3/4
f 350/1/4 348/1/4 351/1/4
f 351/3/4 344/3/4 352/3/4
f 349/2/4 350/2/4 353/2/4
f 350/1/4 351/1/4 353/1/4
f 351/1/4 352/1/4 353/1/4
f 353/1/4 352/1/4 354/1/4
f 349/2/4 353/2/4 355/2/4
f 353/2/4 354/2/4 355/2/4
f 354/1/4 352/1/4 356/1/4
f 355/2/4 354/2/4 356/2/4
f 345/2/4 349/2/4 357/2/4
f 349/2/4 355/2/4 357/2/4
f 355/1/4 356/1/4 358/1/4
f 357/2/4 355/2/4 358/2/4
f 357/1/4 358/1/4 359/1/4
f 356/1/4 352/1/4 360/1/4
f 359/1/4 358/1/4 360/1/4
f 358/1/4 356/1/4 360/1/4
f 359/2/4 360/2/4 361/2/4
f 360/1/4 352/1/4 362/1/4
f 361/2/4 360/2/4 362/2/4
f 359/2/4 361/2/4 363/2/4
f 361/1/4 362/1/4 363/1/4
f 363/1/4 362/1/4 364/1/4
f 363/2/4 364/2/4 365/2/4
f 364/1/4 362/1/4 365/1/4
f 362/1/4 352/1/4 366/1/4
f 365/1/4 362/1/4 366/1/4
f 363/2/4 365/2/4 367/2/4
f 359/2/4 363/2/4 367/2/4
f 365/2/4 366/2/4 367/2/4
f 366/1/4 352/1/4 368/1/4
f 367/2/4 366/2/4 368/2/4
f 352/3/4 344/3/4 369/3/4
f 368/1/4 352/1/4 369/1/4
f 369/3/4 344/3/4 370/3/4
f 375/1/5 372/1/5 371/1/5
f 376/2/5 373/2/5 372/2/5
f 376/1/5 372/1/5 375/1/5
f 377/1/5 374/1/5 373/1/5
f 377/2/5 373/2/5 376/2/5
f 378/1/5 374/1/5 377/1/5
f 379/2/5 376/2/5 375/2/5
f 379/2/5 377/2/5 376/2/5
f 379/2/5 378/2/5 377/2/5
f 380/2/5 378/2/5 379/2/5
f 381/2/5 379/2/5 375/2/5
f 381/1/5 380/1/5 379/1/5
f 382/1/5 380/1/5 381/1/5
f 383/2/5 381/2/5 375/2/5
f 383/2/5 382/2/5 381/2/5
f 384/2/5 382/2/5 383/2/5
f 385/2/5 383/2/5 375/2/5
f 385/1/5 384/1/5 383/1/5
f 386/1/5 384/1/5 385/1/5
f 387/2/5 385/2/5 375/2/5
f 387/2/5 386/2/5 385/2/5
f 388/2/5 386/2/5 387/2/5
f 389/2/5 386/2/5 388/2/5
f 390/2/5 386/2/5 389/2/5
f 391/1/5 388/1/5 387/1/5
f 392/2/5 389/2/5 388/2/5
f 392/1/5 388/1/5 391/1/5
f 393/1/5 390/1/5 389/1/5
f 393/2/5 389/2/5 392/2/5
f 394/2/5 386/2/5 390/2/5
f 394/1/5 390/1/5 393/1/5
f 395/2/5 386/2/5 394/2/5
f 396/2/6 397/2/6 398/2/6
f 396/2/6 398/2/6 400/2/6
f 398/2/6 399/2/6 400/2/6
f 400/2/6 399/2/6 401/2/6
f 402/1/6 403/1/6 404/1/6
f 404/1/6 403/1/6 405/1/6
f 406/3/6 407/3/6 408/3/6
f 408/3/6 407/3/6 409/3/6
f 406/3/6 408/3/6 410/3/6
f 408/1/6 409/1/6 411/1/6
f 410/3/6 408/3/6 411/3/6
f 411/1/6 409/1/6 412/1/6
f 411/1/6 412/1/6 416/1/6
f 410/1/6 411/1/6 416/1/6
f 412/1/6 413/1/6 416/1/6
f 416/1/6 413/1/6 417/1/6
f 417/1/6 413/1/6 418/1/6
f 414/1/6 415/1/6 420/1/6
f 420/1/6 415/1/6 421/1/6
f 418/1/6 419/1/6 422/1/6
f 417/1/6 418/1/6 422/1/6
f 422/1/6 419/1/6 423/1/6
f 410/1/6 416/1/6 424/1/6
f 423/1/6 419/1/6 425/1/6
f 425/1/6 419/1/6 426/1/6
f 410/1/6 424/1/6 427/1/6
f 424/1/6 425/1/6 427/1/6
f 427/1/6 425/1/6 428/1/6
f 429/3/6 430/3/6 433/3/6
f 433/3/6 430/3/6 434/3/6
f 434/3/6 430/3/6 435/3/6
f 435/3/6 430/3/6 436/3/6
f 431/3/6 432/3/6 437/3/6
f 437/3/6 432/3/6 438/3/6
f 429/3/6 433/3/6 439/3/6
f 434/3/6 435/3/6 440/3/6
f 438/3/6 432/3/6 442/3/6
f 439/3/6 440/3/6 443/3/6
f 440/3/6 435/3/6 443/3/6
f 441/3/6 442/3/6 444/3/6
f 442/3/6 432/3/6 445/3/6
f 444/3/6 442/3/6 445/3/6
f 445/3/6 432/3/6 446/3/6
f 443/3/6 444/3/6 447/3/6
f 444/3/6 445/3/6 447/3/6
f 446/3/6 432/3/6 448/3/6
f 439/3/6 443/3/6 449/3/6
f 447/3/6 448/3/6 449/3/6
f 429/3/6 439/3/6 449/3/6
f 443/3/6 447/3/6 449/3/6
f 449/3/6 448/3/6 450/3/6
f 448/3/6 432/3/6 451/3/6
f 450/3/6 448/3/6 451/3/6
f 451/3/6 432/3/6 452/3/6
f 429/3/6 449/3/6 453/3/6
f 450/3/6 451/3/6 454/3/6
f 454/3/6 451/3/6 455/3/6
f 453/3/6 454/3/6 457/3/6
f 455/3/6 456/3/6 457/3/6
f 454/3/6 455/3/6 457/3/6
f 457/3/6 456/3/6 458/3/6
f 458/3/6 456/3/6 459/3/6
f 459/3/6 456/3/6 460/3/6
f 458/3/6 459/3/6 461/3/6
f 460/3/6 456/3/6 462/3/6
f 453/3/6 457/3/6 463/3/6
f 463/3/6 457/3/6 464/3/6
f 461/3/6 462/3/6 465/3/6
f 458/3/6 461/3/6 465/3/6
f 465/3/6 462/3/6 466/3/6
f 453/3/6 463/3/6 467/3/6
f 467/3/6 463/3/6 468/3/6
f 468/3/6 463/3/6 469/3/6
f 466/3/6 462/3/6 471/3/6
f 462/3/6 456/3/6 472/3/6
f 471/3/6 462/3/6 472/3/6
f 429/3/6 453/3/6 473/3/6
f 453/3/6 467/3/6 473/3/6
f 473/3/6 467/3/6 474/3/6
f 474/3/6 467/3/6 475/3/6
f 469/3/6 470/3/6 476/3/6
f 468/3/6 469/3/6 476/3/6
f 474/3/6 475/3/6 478/3/6
f 475/3/6 476/3/6 478/3/6
f 476/3/6 470/3/6 479/3/6
f 478/3/6 476/3/6 479/3/6
f 479/3/6 470/3/6 480/3/6
f 429/3/6 473/3/6 481/3/6
f 477/3/6 478/3/6 482/3/6
f 478/3/6 479/3/6 482/3/6
f 482/3/6 479/3/6 483/3/6
f 480/3/6 470/3/6 484/3/6
f 472/3/6 456/3/6 486/3/6
f 483/3/6 484/3/6 487/3/6
f 482/3/6 483/3/6 487/3/6
f 481/3/6 482/3/6 487/3/6
f 484/3/6 470/3/6 487/3/6
f 485/3/6 486/3/6 488/3/6
f 481/3/6 487/3/6 489/3/6
f 487/3/6 488/3/6 489/3/6
f 429/3/6 481/3/6 489/3/6
f 488/3/6 486/3/6 490/3/6
f 489/3/6 488/3/6 490/3/6
f 486/3/6 456/3/6 490/3/6
f 491/3/6 492/3/6 496/3/6
f 496/3/6 492/3/6 497/3/6
f 493/3/6 494/3/6 499/3/6
f 499/3/6 494/3/6 500/3/6
f 497/3/6 498/3/6 501/3/6
f 495/3/6 496/3/6 501/3/6
f 496/3/6 497/3/6 501/3/6
f 501/3/6 498/3/6 502/3/6
f 495/3/6 501/3/6 503/3/6
f 503/3/6 501/3/6 504/3/6
f 505/3/6 506/3/6 509/3/6
f 509/3/6 506/3/6 510/3/6
f 507/3/6 508/3/6 511/3/6
f 511/3/6 508/3/6 512/3/6
f 513/3/6 514/3/6 515/3/6
f 515/3/6 514/3/6 516/3/6
f 517/3/6 518/3/6 519/3/6
f 519/3/6 518/3/6 520/3/6
f 521/3/6 522/3/6 523/3/6
f 523/3/6 522/3/6 524/3/6
f 521/3/6 523/3/6 527/3/6
f 527/3/6 523/3/6 528/3/6
f 525/3/6 526/3/6 529/3/6
f 529/3/6 526/3/6 530/3/6
